<?xml version="1.0" standalone="no"?>
<!DOCTYPE svg PUBLIC "-//W3C//DTD SVG 20010904//EN"
 "http://www.w3.org/TR/2001/REC-SVG-20010904/DTD/svg10.dtd">
<svg version="1.0" xmlns="http://www.w3.org/2000/svg"
 width="600.000000pt" height="600.000000pt" viewBox="0 0 600.000000 600.000000"
 preserveAspectRatio="xMidYMid meet">
<g transform="translate(0.000000,600.000000) scale(0.100000,-0.100000)"
fill="#000000" stroke="none">
<path d="M2795 4270 c-241 -63 -453 -245 -578 -495 -44 -88 -96 -257 -119
-386 -20 -110 -23 -157 -23 -424 0 -322 8 -414 52 -564 63 -222 165 -380 335
-525 155 -132 413 -204 636 -178 227 26 456 136 580 277 125 142 207 370 248
690 22 178 15 536 -14 675 -61 288 -175 515 -357 709 -111 118 -246 197 -387
225 -106 22 -284 20 -373 -4z m237 -8 c15 -6 13 -10 -12 -27 -17 -11 -28 -26
-25 -32 2 -7 -6 -18 -18 -23 -20 -10 -20 -10 -5 3 10 8 15 17 11 20 -3 4 0 13
6 21 10 12 8 16 -10 21 -17 6 -19 9 -8 16 16 10 37 10 61 1z m98 -12 c0 -5 -7
-7 -15 -4 -8 4 -15 8 -15 10 0 2 7 4 15 4 8 0 15 -4 15 -10z m-208 -96 c-146
-235 -198 -395 -190 -583 5 -115 38 -231 97 -350 52 -101 57 -103 256 -99
l170 3 60 37 c33 21 87 47 119 58 66 23 80 24 71 10 -3 -5 -14 -10 -24 -10
-45 0 -94 -75 -62 -94 5 -3 70 -1 146 5 75 5 140 7 143 4 12 -12 -22 -23 -111
-35 -163 -21 -172 -24 -175 -47 -2 -11 4 -23 12 -26 30 -12 280 -10 284 2 2 7
-21 11 -71 11 -54 0 -78 4 -87 15 -10 13 -9 15 11 16 13 1 31 1 41 0 9 -1 19
3 23 9 3 5 14 10 23 9 12 0 13 -2 4 -6 -9 -3 -4 -10 14 -19 15 -8 29 -12 32
-9 3 3 0 5 -7 5 -7 0 -9 5 -5 12 4 7 3 8 -4 4 -7 -4 -12 -2 -12 3 0 6 7 11 15
11 8 0 20 10 26 23 15 26 15 25 -8 43 -10 7 -13 14 -6 14 6 0 19 -7 27 -15 14
-14 14 -19 -4 -52 -18 -35 -17 -69 2 -57 6 4 9 1 6 -7 -3 -8 1 -18 8 -24 9 -8
5 -21 -22 -60 -19 -27 -34 -43 -34 -34 0 8 6 21 13 29 6 8 2 6 -10 -4 -20 -16
-23 -17 -23 -3 0 14 15 24 45 28 18 3 35 33 22 41 -6 3 -16 -1 -22 -9 -10 -14
-33 -16 -142 -14 -110 2 -132 0 -143 -14 -28 -34 -2 -45 119 -50 109 -5 156
-16 115 -28 -11 -3 -77 -9 -149 -12 -113 -6 -135 -4 -170 12 -35 15 -71 18
-290 18 -273 1 -286 3 -382 61 -134 80 -313 88 -313 13 0 -21 38 -51 53 -42 6
3 2 12 -9 21 -18 13 -18 14 5 7 21 -6 22 -5 10 8 -8 8 -17 13 -21 11 -4 -2 -9
-1 -12 4 -3 5 0 9 7 10 83 13 99 14 93 3 -4 -6 -12 -8 -18 -5 -7 4 -8 2 -4 -5
4 -6 12 -9 17 -6 5 4 9 2 9 -3 0 -6 15 -13 33 -16 17 -4 51 -17 73 -29 23 -12
64 -34 93 -50 68 -36 211 -51 413 -42 138 7 153 6 218 -16 69 -22 75 -23 223
-11 146 11 153 12 175 38 14 16 22 35 19 46 -3 11 4 28 19 43 31 31 32 78 3
99 -20 14 -20 16 -5 37 23 33 20 62 -9 89 -23 21 -30 22 -97 16 l-72 -7 22 21
c27 25 27 31 3 61 -38 47 -201 20 -314 -53 -51 -33 -53 -33 -190 -36 -76 -2
-148 -1 -161 2 -16 4 -33 29 -64 93 -65 139 -77 190 -77 333 0 106 4 136 24
195 30 88 97 222 168 337 l55 89 56 -6 c73 -9 192 -48 251 -83 64 -37 192
-161 262 -256 113 -149 205 -370 246 -586 21 -115 29 -440 14 -583 -52 -488
-191 -740 -483 -876 -63 -29 -194 -71 -265 -84 l-32 -6 32 43 c144 188 177
463 86 721 -36 103 -43 107 -264 151 -150 29 -208 31 -242 5 -40 -32 -125 -44
-260 -37 -85 5 -123 4 -128 -4 -5 -8 -13 -6 -26 6 -21 19 -25 44 -8 44 8 0 7
6 -2 17 -12 14 -12 16 0 8 10 -5 12 -4 7 3 -4 7 -15 12 -24 12 -13 0 -14 2 -3
9 13 8 38 6 71 -6 8 -4 23 -5 34 -4 10 2 16 -1 13 -6 -6 -9 105 -8 129 1 9 3
12 1 9 -4 -3 -6 -13 -10 -21 -10 -8 0 -13 -4 -10 -8 3 -5 -25 -7 -62 -5 -46 2
-62 0 -52 -7 12 -8 10 -10 -10 -10 -50 0 -67 -5 -67 -17 0 -15 13 -17 21 -4 3
4 53 11 112 14 110 5 143 18 131 51 -6 15 -18 18 -202 36 -65 7 -116 17 -125
25 -14 12 -16 12 -16 -5 0 -10 4 -16 8 -14 12 7 29 -6 23 -17 -10 -15 -40 7
-42 30 -2 28 10 33 43 17 21 -10 67 -14 169 -13 l140 2 0 24 c0 24 -5 26 -125
47 -144 26 -198 30 -135 9 22 -8 36 -14 30 -14 -12 -2 16 -21 30 -21 6 0 3 5
-5 10 -20 13 -9 12 48 -1 75 -19 69 -25 -24 -26 -55 -1 -82 2 -73 8 8 5 10 9
6 9 -4 0 -19 -7 -32 -16 -13 -9 -29 -13 -35 -9 -16 10 -2 25 18 19 14 -5 15
-4 2 5 -12 9 -13 13 -2 20 11 7 10 9 -3 14 -18 7 -17 35 2 55 9 10 18 10 30 3
16 -9 16 -10 -4 -11 -13 0 -23 -3 -23 -7 0 -8 125 -17 240 -18 l65 0 0 30 c0
25 -7 33 -44 52 -25 13 -47 20 -50 16 -3 -3 0 -8 7 -10 6 -3 10 -9 7 -13 -3
-5 3 -7 14 -5 11 2 26 -4 33 -13 7 -9 8 -13 2 -9 -7 4 -14 0 -17 -8 -4 -10 -1
-12 11 -9 15 5 15 4 -1 -6 -22 -14 -38 -5 -31 18 5 14 4 14 -4 2 -6 -8 -9 -17
-7 -20 2 -4 -2 -7 -10 -7 -8 0 -15 4 -15 9 0 5 -10 6 -21 3 -19 -6 -21 -4 -16
14 3 12 1 19 -4 15 -5 -3 -9 -12 -9 -20 0 -8 -5 -12 -10 -9 -6 4 -8 10 -5 15
15 24 -140 28 -167 3 -22 -20 -24 -71 -3 -79 21 -8 19 -24 -3 -24 -25 0 -42
-20 -42 -49 0 -32 27 -61 57 -61 25 0 29 -10 12 -27 -7 -7 -9 -23 -5 -38 11
-42 71 -62 211 -70 135 -8 225 4 267 35 36 26 62 25 240 -10 82 -16 152 -30
154 -30 10 0 42 -89 63 -170 25 -101 28 -248 6 -335 -19 -75 -71 -182 -126
-259 l-42 -58 -76 6 c-96 9 -237 48 -319 89 -234 117 -405 377 -468 712 -28
146 -28 652 0 805 46 260 131 455 264 605 133 150 302 242 484 264 35 4 64 6
66 5 1 -1 -19 -37 -46 -80z m308 82 c0 -3 -4 -8 -10 -11 -5 -3 -10 -1 -10 4 0
6 5 11 10 11 6 0 10 -2 10 -4z m-473 -12 c-3 -3 -12 -4 -19 -1 -8 3 -5 6 6 6
11 1 17 -2 13 -5z m518 -14 c3 -6 -1 -7 -9 -4 -18 7 -21 14 -7 14 6 0 13 -4
16 -10z m-585 -10 c-8 -6 -24 -15 -35 -21 -16 -8 -15 -6 4 10 13 12 28 21 35
21 6 0 4 -5 -4 -10z m660 -26 c0 -2 -13 2 -30 11 -16 9 -30 18 -30 21 0 2 14
-2 30 -11 17 -9 30 -18 30 -21z m-720 2 c0 -3 -4 -8 -10 -11 -5 -3 -10 -1 -10
4 0 6 5 11 10 11 6 0 10 -2 10 -4z m792 -41 c16 -14 26 -25 21 -25 -4 0 -21
11 -37 25 -16 14 -26 25 -21 25 4 0 20 -11 37 -25z m-832 5 c-8 -5 -22 -9 -30
-9 -10 0 -8 3 5 9 27 12 43 12 25 0z m355 -19 c-3 -6 -11 -11 -16 -11 -5 0 -4
6 3 14 14 16 24 13 13 -3z m550 -43 c4 -3 2 -9 -3 -12 -5 -3 -15 1 -21 8 -10
11 -9 14 3 12 9 -1 18 -5 21 -8z m27 -32 c7 4 8 2 4 -4 -3 -6 2 -15 11 -21 10
-6 14 -11 9 -11 -14 0 -46 31 -45 44 0 6 3 6 6 -2 2 -6 10 -9 15 -6z m-642
-36 c-6 -11 -13 -20 -16 -20 -2 0 0 9 6 20 6 11 13 20 16 20 2 0 0 -9 -6 -20z
m-470 -25 c-7 -8 -18 -15 -24 -15 -6 0 -2 7 8 15 25 19 32 19 16 0z m447 -29
c-6 -12 -12 -23 -12 -26 0 -3 -6 -14 -13 -25 -11 -18 -12 -17 -6 10 4 17 11
33 17 36 5 4 7 11 4 16 -3 5 0 10 8 10 11 0 12 -4 2 -21z m784 -44 c16 -24 28
-46 26 -48 -1 -2 -15 15 -30 38 -15 23 -27 39 -27 35 0 -4 -9 1 -19 10 -11 9
-18 20 -15 25 8 13 30 -8 65 -60z m-1274 43 c0 -8 -4 -15 -9 -15 -5 0 -6 -5
-2 -12 4 -7 3 -8 -4 -4 -9 5 -9 13 -2 27 13 23 17 24 17 4z m-27 -44 c0 -6 -4
-12 -8 -15 -5 -3 -9 1 -9 9 0 8 4 15 9 15 4 0 8 -4 8 -9z m-22 -46 c-3 -3 -9
2 -12 12 -6 14 -5 15 5 6 7 -7 10 -15 7 -18z m-21 -13 c0 -10 -6 -19 -13 -19
-9 0 -9 5 -1 19 7 10 13 18 14 18 1 0 1 -8 0 -18z m-12 -42 c-3 -5 -12 -10
-18 -10 -7 0 -6 4 3 10 19 12 23 12 15 0z m502 -22 c-3 -7 -5 -2 -5 12 0 14 2
19 5 13 2 -7 2 -19 0 -25z m923 22 c0 -5 -5 -10 -11 -10 -5 0 -7 5 -4 10 3 6
8 10 11 10 2 0 4 -4 4 -10z m-1458 -52 c-7 -7 -12 -8 -12 -2 0 14 12 26 19 19
2 -3 -1 -11 -7 -17z m-12 -28 c0 -5 -2 -10 -4 -10 -3 0 -8 5 -11 10 -3 6 -1
10 4 10 6 0 11 -4 11 -10z m1551 -80 c15 -27 23 -48 19 -45 -12 8 -60 95 -52
95 4 0 19 -23 33 -50z m-1583 5 c-6 -14 -13 -23 -15 -21 -3 2 0 13 6 24 6 11
7 23 3 27 -4 5 -2 5 5 1 9 -5 10 -13 1 -31z m-8 -49 c0 -2 -7 -6 -15 -10 -8
-3 -15 -1 -15 4 0 6 7 10 15 10 8 0 15 -2 15 -4z m1633 -66 c3 -11 2 -22 -2
-24 -4 -3 -8 6 -9 20 -2 29 4 31 11 4z m-1668 -19 c-2 -5 -9 -21 -15 -36 -6
-15 -13 -25 -16 -22 -3 3 1 18 10 35 8 16 12 33 8 37 -4 5 -1 5 6 1 7 -4 10
-11 7 -15z m-25 -105 c0 -3 -4 -8 -10 -11 -5 -3 -10 -1 -10 4 0 6 5 11 10 11
6 0 10 -2 10 -4z m670 -35 c0 -6 -4 -13 -10 -16 -5 -3 -10 1 -10 9 0 9 5 16
10 16 6 0 10 -4 10 -9z m-693 -58 c-3 -10 -5 -2 -5 17 0 19 2 27 5 18 2 -10 2
-26 0 -35z m703 7 c6 -11 8 -20 6 -20 -3 0 -10 9 -16 20 -6 11 -8 20 -6 20 3
0 10 -9 16 -20z m20 -40 c0 -5 -5 -10 -11 -10 -5 0 -7 5 -4 10 3 6 8 10 11 10
2 0 4 -4 4 -10z m1051 -13 c-10 -9 -11 -8 -5 6 3 10 9 15 12 12 3 -3 0 -11 -7
-18z m-306 -36 c0 -9 -4 -21 -8 -28 -12 -19 3 -42 31 -46 15 -2 10 -3 -11 -2
-20 2 -34 -1 -31 -6 8 -13 -10 -11 -24 3 -7 7 -12 8 -12 3 0 -6 -18 -11 -41
-13 -29 -2 -39 1 -33 9 5 9 2 10 -11 5 -15 -5 -16 -4 -5 9 7 8 19 15 27 15 8
0 11 5 7 12 -5 7 -2 9 9 5 9 -3 18 0 21 9 3 8 11 14 17 14 8 0 8 -4 -1 -15 -6
-8 -9 -18 -6 -24 4 -5 -2 -12 -11 -15 -14 -4 -14 -4 2 -3 12 1 20 10 20 20 0
10 6 21 13 26 15 9 -34 36 -60 32 -30 -4 -20 8 15 17 41 11 94 -4 92 -27z
m-738 -3 c-3 -7 -5 -2 -5 12 0 14 2 19 5 13 2 -7 2 -19 0 -25z m-740 -10 c-3
-8 -6 -5 -6 6 -1 11 2 17 5 13 3 -3 4 -12 1 -19z m1303 12 c0 -5 -8 -10 -17
-10 -15 0 -16 2 -3 10 19 12 20 12 20 0z m-528 -47 c6 -7 5 -14 -3 -19 -7 -4
-9 -3 -5 4 3 6 2 13 -4 17 -5 3 -10 14 -9 23 0 14 2 14 6 2 3 -8 10 -20 15
-27z m487 34 c-2 -1 -13 -9 -24 -17 -19 -14 -19 -14 -6 3 7 9 18 17 24 17 6 0
8 -1 6 -3z m-75 -51 c-10 -8 -24 -11 -32 -8 -17 6 -1 17 29 19 20 2 20 1 3
-11z m613 -28 c-3 -7 -5 -2 -5 12 0 14 2 19 5 13 2 -7 2 -19 0 -25z m-677 8
c0 -3 -4 -8 -10 -11 -5 -3 -10 -1 -10 4 0 6 5 11 10 11 6 0 10 -2 10 -4z m300
-96 c8 -5 11 -10 5 -10 -5 0 -17 5 -25 10 -8 5 -10 10 -5 10 6 0 17 -5 25 -10z
m-47 -7 c-7 -2 -19 -2 -25 0 -7 3 -2 5 12 5 14 0 19 -2 13 -5z m-818 -103 c10
-11 14 -20 9 -20 -12 1 -44 25 -44 34 0 12 17 6 35 -14z m922 4 c-3 -3 -12 -4
-19 -1 -8 3 -5 6 6 6 11 1 17 -2 13 -5z m47 -6 c-3 -4 -11 -5 -19 -1 -21 7
-19 12 4 10 11 0 18 -5 15 -9z m283 -30 c-3 -8 -6 -5 -6 6 -1 11 2 17 5 13 3
-3 4 -12 1 -19z m-1562 -8 c13 -5 14 -9 5 -9 -8 0 -24 4 -35 9 -13 5 -14 9 -5
9 8 0 24 -4 35 -9z m520 -28 c-3 -3 -11 0 -18 7 -9 10 -8 11 6 5 10 -3 15 -9
12 -12z m330 8 c-3 -5 -14 -10 -23 -9 -14 0 -13 2 3 9 27 11 27 11 20 0z m486
-11 c-14 -15 -28 -19 -52 -16 l-34 4 36 1 c22 1 39 8 43 17 3 8 10 15 16 15 6
0 2 -9 -9 -21z m-614 5 c-3 -3 -12 -4 -19 -1 -8 3 -5 6 6 6 11 1 17 -2 13 -5z
m71 -1 c-10 -2 -26 -2 -35 0 -10 3 -2 5 17 5 19 0 27 -2 18 -5z m167 -3 c3 -5
2 -10 -4 -10 -5 0 -13 5 -16 10 -3 6 -2 10 4 10 5 0 13 -4 16 -10z m58 -27
c-7 -2 -19 -2 -25 0 -7 3 -2 5 12 5 14 0 19 -2 13 -5z m47 -3 c-8 -5 -19 -10
-25 -10 -5 0 -3 5 5 10 8 5 20 10 25 10 6 0 3 -5 -5 -10z m87 4 c-3 -3 -12 -4
-19 -1 -8 3 -5 6 6 6 11 1 17 -2 13 -5z m90 0 c-3 -3 -12 -4 -19 -1 -8 3 -5 6
6 6 11 1 17 -2 13 -5z m-1087 -49 c0 -12 -19 -12 -23 0 -4 9 -1 12 9 8 7 -3
14 -7 14 -8z m-409 -88 c-10 -9 -11 -8 -5 6 3 10 9 15 12 12 3 -3 0 -11 -7
-18z m1796 -64 c-3 -10 -5 -4 -5 12 0 17 2 24 5 18 2 -7 2 -21 0 -30z m-1000
-9 c-3 -3 -12 -4 -19 -1 -8 3 -5 6 6 6 11 1 17 -2 13 -5z m58 -4 c3 -6 -1 -7
-9 -4 -18 7 -21 14 -7 14 6 0 13 -4 16 -10z m-241 -12 c-3 -4 -12 -4 -21 -1
-11 4 -14 3 -9 -5 4 -7 3 -12 -3 -12 -16 0 -22 18 -9 23 19 7 47 4 42 -5z
m271 2 c3 -5 1 -10 -4 -10 -6 0 -11 5 -11 10 0 6 2 10 4 10 3 0 8 -4 11 -10z
m-631 -19 c4 -5 -3 -7 -14 -4 -23 6 -26 13 -6 13 8 0 17 -4 20 -9z m300 1 c2
-4 -7 -8 -22 -9 -24 -2 -24 -1 -7 7 11 5 21 9 22 9 1 1 4 -3 7 -7z m403 2 c-3
-3 -12 -4 -19 -1 -8 3 -5 6 6 6 11 1 17 -2 13 -5z m-519 -11 c-10 -2 -28 -2
-40 0 -13 2 -5 4 17 4 22 1 32 -1 23 -4z m610 -28 c12 -14 18 -25 13 -25 -5 0
-16 11 -25 25 -9 14 -15 25 -13 25 2 0 13 -11 25 -25z m36 -60 c9 -14 13 -25
8 -25 -5 0 -14 11 -20 25 -6 14 -10 25 -8 25 2 0 11 -11 20 -25z m686 -49 c0
-3 -4 -8 -10 -11 -5 -3 -10 -1 -10 4 0 6 5 11 10 11 6 0 10 -2 10 -4z m-650
-50 c0 -5 -7 -3 -15 4 -8 7 -12 17 -9 22 7 10 24 -9 24 -26z m-1053 -28 c2
-17 0 -19 -7 -8 -5 8 -6 18 -4 22 8 12 10 10 11 -14z m23 -78 c0 -5 -2 -10 -4
-10 -3 0 -8 5 -11 10 -3 6 -1 10 4 10 6 0 11 -4 11 -10z m1628 -35 c-6 -14
-13 -23 -15 -21 -5 5 15 46 22 46 3 0 -1 -11 -7 -25z m-1607 -27 c-11 -11 -13
-10 -7 0 4 7 2 21 -5 30 -12 15 -11 15 6 0 16 -15 17 -20 6 -30z m23 -16 c3
-5 -1 -9 -9 -9 -8 0 -12 4 -9 9 3 4 7 8 9 8 2 0 6 -4 9 -8z m1576 4 c0 -2 -8
-10 -17 -17 -16 -13 -17 -12 -4 4 13 16 21 21 21 13z m-1569 -43 c13 -16 12
-17 -3 -4 -10 7 -18 15 -18 17 0 8 8 3 21 -13z m1547 -18 c-3 -3 -9 2 -12 12
-6 14 -5 15 5 6 7 -7 10 -15 7 -18z m-1505 -49 c4 -10 1 -13 -8 -9 -8 3 -12 9
-9 14 7 12 11 11 17 -5z m944 -18 c-3 -7 -5 -2 -5 12 0 14 2 19 5 13 2 -7 2
-19 0 -25z m519 -7 c-4 -6 -13 -11 -19 -11 -8 0 -7 3 2 9 8 5 10 14 6 22 -6
11 -5 11 5 2 7 -6 9 -16 6 -22z m-1417 -38 c16 -24 18 -31 7 -27 -8 3 -18 14
-21 25 -4 10 -11 19 -16 19 -6 0 -7 5 -4 11 4 6 8 9 9 7 1 -2 13 -18 25 -35z
m1352 -44 c-12 -10 -22 -22 -22 -26 0 -4 -15 -16 -32 -27 l-32 -18 25 21 c14
11 29 21 33 21 5 0 5 4 2 10 -3 5 3 15 15 22 11 7 20 20 21 28 0 12 2 13 6 1
3 -8 -4 -22 -16 -32z m-481 -16 c-11 -17 -11 -17 -6 0 3 10 6 24 7 30 0 9 2 9
5 0 3 -7 0 -20 -6 -30z m-766 -64 c-8 -13 -24 -1 -24 18 0 13 3 13 15 3 8 -7
12 -16 9 -21z m756 15 c0 -8 -5 -12 -10 -9 -6 4 -8 11 -5 16 9 14 15 11 15 -7z
m-737 -29 c-3 -9 -8 -14 -10 -11 -3 3 -2 9 2 15 9 16 15 13 8 -4z m722 6 c3
-5 2 -12 -3 -15 -5 -3 -9 1 -9 9 0 17 3 19 12 6z m410 -11 c-10 -11 -20 -18
-23 -16 -5 6 21 35 32 36 5 0 1 -9 -9 -20z m-1105 -16 c0 5 8 -1 19 -12 10
-12 22 -18 26 -14 5 4 5 1 1 -5 -5 -10 -15 -7 -37 9 -16 12 -29 27 -29 32 0 6
5 4 10 -4 5 -8 10 -11 10 -6z m666 -18 c0 -14 -5 -21 -9 -17 -4 4 -5 15 -1 24
9 24 12 21 10 -7z m380 -8 c4 -7 3 -8 -4 -4 -7 4 -12 2 -12 -5 0 -7 -3 -10 -6
-6 -6 5 3 27 11 27 2 0 7 -5 11 -12z m-400 -40 c-9 -5 -13 -14 -10 -20 4 -7 2
-8 -4 -4 -7 4 -12 2 -12 -5 0 -7 -3 -10 -6 -7 -9 10 27 58 38 52 6 -4 4 -10
-6 -16z m364 18 c0 -3 -4 -8 -10 -11 -5 -3 -10 -1 -10 4 0 6 5 11 10 11 6 0
10 -2 10 -4z m-890 -36 c0 -5 -7 -7 -15 -4 -8 4 -15 8 -15 10 0 2 7 4 15 4 8
0 15 -4 15 -10z m810 -4 c0 -2 -9 -6 -20 -9 -11 -3 -18 -1 -14 4 5 9 34 13 34
5z m-55 -26 c-3 -5 -12 -10 -18 -10 -7 0 -6 4 3 10 19 12 23 12 15 0z m-265
-8 c0 -4 -5 -13 -11 -19 -8 -8 -5 -13 10 -18 12 -3 21 -11 21 -17 0 -5 -8 -7
-17 -4 -9 4 -20 1 -25 -6 -6 -9 -11 -9 -14 -2 -2 6 -19 9 -37 7 -24 -2 -26 -1
-11 5 31 10 74 44 68 54 -3 4 0 8 5 8 6 0 11 -4 11 -8z m221 -15 c-10 -9 -11
-8 -5 6 3 10 9 15 12 12 3 -3 0 -11 -7 -18z m-61 -11 c0 -2 -11 -6 -25 -8 -13
-3 -22 -1 -19 3 5 9 44 13 44 5z m-420 -10 c0 -2 -7 -7 -16 -10 -8 -3 -12 -2
-9 4 6 10 25 14 25 6z m35 -16 c3 -5 1 -10 -4 -10 -6 0 -11 5 -11 10 0 6 2 10
4 10 3 0 8 -4 11 -10z m84 -6 c10 -9 -45 -3 -59 6 -11 7 -5 8 20 4 19 -4 37
-8 39 -10z"/>
<path d="M2998 4253 c7 -3 16 -2 19 1 4 3 -2 6 -13 5 -11 0 -14 -3 -6 -6z"/>
<path d="M3400 4060 c0 -5 5 -10 11 -10 5 0 7 5 4 10 -3 6 -8 10 -11 10 -2 0
-4 -4 -4 -10z"/>
<path d="M2748 3963 c7 -3 16 -2 19 1 4 3 -2 6 -13 5 -11 0 -14 -3 -6 -6z"/>
<path d="M2466 3927 c3 -10 9 -15 12 -12 3 3 0 11 -7 18 -10 9 -11 8 -5 -6z"/>
<path d="M3648 3053 c7 -3 16 -2 19 1 4 3 -2 6 -13 5 -11 0 -14 -3 -6 -6z"/>
<path d="M3395 3039 c-4 -6 -5 -12 -2 -15 2 -3 7 2 10 11 7 17 1 20 -8 4z"/>
<path d="M2288 2833 c7 -3 16 -2 19 1 4 3 -2 6 -13 5 -11 0 -14 -3 -6 -6z"/>
<path d="M3741 2823 c-1 -17 16 -25 25 -12 4 7 3 9 -4 5 -5 -3 -13 0 -15 6 -4
9 -6 10 -6 1z"/>
<path d="M2309 2719 c0 -2 -2 -11 -4 -20 -1 -9 3 -16 10 -16 7 0 12 6 11 13
-2 13 -15 31 -17 23z"/>
<path d="M3523 1985 c0 -8 4 -12 9 -9 5 3 6 10 3 15 -9 13 -12 11 -12 -6z"/>
<path d="M3179 1813 c-13 -16 -12 -17 4 -4 9 7 17 15 17 17 0 8 -8 3 -21 -13z"/>
<path d="M2558 4233 c7 -3 16 -2 19 1 4 3 -2 6 -13 5 -11 0 -14 -3 -6 -6z"/>
<path d="M3419 4232 c9 -7 10 -11 2 -15 -7 -4 -8 -5 -1 -3 16 2 14 20 -2 24
-10 3 -10 2 1 -6z"/>
<path d="M3490 4156 c0 -2 8 -10 18 -17 15 -13 16 -12 3 4 -13 16 -21 21 -21
13z"/>
<path d="M2410 4100 c-9 -6 -10 -10 -3 -10 6 0 15 5 18 10 8 12 4 12 -15 0z"/>
<path d="M3666 3967 c3 -10 9 -15 12 -12 3 3 0 11 -7 18 -10 9 -11 8 -5 -6z"/>
<path d="M3771 3824 c0 -11 3 -14 6 -6 3 7 2 16 -1 19 -3 4 -6 -2 -5 -13z"/>
<path d="M2096 3637 c3 -10 9 -15 12 -12 3 3 0 11 -7 18 -10 9 -11 8 -5 -6z"/>
<path d="M2021 3224 c0 -11 3 -14 6 -6 3 7 2 16 -1 19 -3 4 -6 -2 -5 -13z"/>
<path d="M3960 2695 c0 -5 5 -17 10 -25 5 -8 10 -10 10 -5 0 6 -5 17 -10 25
-5 8 -10 11 -10 5z"/>
<path d="M2026 2637 c3 -10 9 -15 12 -12 3 3 0 11 -7 18 -10 9 -11 8 -5 -6z"/>
<path d="M2157 2159 c7 -7 15 -10 18 -7 3 3 -2 9 -12 12 -14 6 -15 5 -6 -5z"/>
<path d="M3796 2088 c3 -5 10 -6 15 -3 13 9 11 12 -6 12 -8 0 -12 -4 -9 -9z"/>
<path d="M3686 1932 c-2 -4 4 -8 14 -8 10 0 16 4 14 8 -3 4 -9 8 -14 8 -5 0
-11 -4 -14 -8z"/>
</g>
</svg>
